<?xml version="1.0" encoding="utf-8"?>
<!-- Generator: Adobe Illustrator 15.0.0, SVG Export Plug-In  -->
<!DOCTYPE svg PUBLIC "-//W3C//DTD SVG 1.1//EN" "http://www.w3.org/Graphics/SVG/1.1/DTD/svg11.dtd" [
	<!ENTITY ns_flows "http://ns.adobe.com/Flows/1.0/">
]>
<svg version="1.1"
	 xmlns="http://www.w3.org/2000/svg" xmlns:xlink="http://www.w3.org/1999/xlink" xmlns:a="http://ns.adobe.com/AdobeSVGViewerExtensions/3.0/"
	 x="0px" y="0px" width="180px" height="180px" viewBox="-22.649 -63.873 180 180"
	 overflow="visible" enable-background="new -22.649 -63.873 180 180" xml:space="preserve">
<defs>
</defs>
<g>
	<g>
		<path fill="#F5F5F5" d="M1.906,23.277c-0.507,0-0.927-0.167-1.26-0.5c-0.333-0.332-0.499-0.752-0.499-1.259
			c0-1.146,0.585-1.719,1.759-1.719c0.479,0,0.885,0.167,1.219,0.499c0.333,0.334,0.499,0.74,0.499,1.22
			C3.624,22.691,3.051,23.277,1.906,23.277z M1.906,27.273c-0.507,0-0.927-0.166-1.26-0.5c-0.333-0.332-0.499-0.752-0.499-1.258
			c0-1.146,0.585-1.719,1.759-1.719c0.479,0,0.885,0.166,1.219,0.499c0.333,0.333,0.499,0.739,0.499,1.22
			C3.624,26.688,3.051,27.273,1.906,27.273z M1.906,31.27c-0.507,0-0.927-0.166-1.26-0.499s-0.499-0.753-0.499-1.259
			c0-1.146,0.585-1.719,1.759-1.719c0.479,0,0.885,0.166,1.219,0.5c0.333,0.333,0.499,0.739,0.499,1.219
			C3.624,30.685,3.051,31.27,1.906,31.27z M1.906,35.267c-0.507,0-0.927-0.166-1.26-0.499s-0.499-0.753-0.499-1.26
			c0-1.145,0.585-1.719,1.759-1.719c0.479,0,0.885,0.168,1.219,0.5c0.333,0.334,0.499,0.74,0.499,1.219
			C3.624,34.682,3.051,35.267,1.906,35.267z M1.906,39.264c-0.507,0-0.927-0.166-1.26-0.5c-0.333-0.332-0.499-0.752-0.499-1.259
			c0-1.146,0.585-1.718,1.759-1.718c0.479,0,0.885,0.166,1.219,0.499c0.333,0.333,0.499,0.739,0.499,1.219
			C3.624,38.678,3.051,39.264,1.906,39.264z M1.906,43.26c-0.507,0-0.927-0.166-1.26-0.499s-0.499-0.753-0.499-1.259
			c0-1.146,0.585-1.719,1.759-1.719c0.479,0,0.885,0.166,1.219,0.5c0.333,0.333,0.499,0.739,0.499,1.219
			C3.624,42.675,3.051,43.26,1.906,43.26z M1.906,47.256c-0.507,0-0.927-0.166-1.26-0.498c-0.333-0.333-0.499-0.753-0.499-1.26
			c0-1.145,0.585-1.719,1.759-1.719c0.479,0,0.885,0.167,1.219,0.5c0.333,0.334,0.499,0.739,0.499,1.219
			C3.624,46.672,3.051,47.256,1.906,47.256z M1.906,51.254c-1.174,0-1.759-0.574-1.759-1.719c0-0.506,0.166-0.926,0.499-1.259
			c0.333-0.334,0.753-0.5,1.26-0.5c1.145,0,1.718,0.586,1.718,1.759c0,0.479-0.166,0.886-0.499,1.219
			C2.791,51.086,2.386,51.254,1.906,51.254z M5.902,23.277c-0.506,0-0.926-0.167-1.259-0.5c-0.334-0.332-0.5-0.752-0.5-1.259
			c0-1.146,0.586-1.719,1.759-1.719c0.479,0,0.885,0.167,1.219,0.499c0.333,0.334,0.499,0.74,0.499,1.22
			C7.62,22.691,7.047,23.277,5.902,23.277z M5.902,27.273c-0.506,0-0.926-0.166-1.259-0.5c-0.334-0.332-0.5-0.752-0.5-1.258
			c0-1.146,0.586-1.719,1.759-1.719c0.479,0,0.885,0.166,1.219,0.499c0.333,0.333,0.499,0.739,0.499,1.22
			C7.62,26.688,7.047,27.273,5.902,27.273z M5.902,27.273c-0.506,0-0.926-0.166-1.259-0.5c-0.334-0.332-0.5-0.752-0.5-1.258
			c0-1.146,0.586-1.719,1.759-1.719c0.479,0,0.885,0.166,1.219,0.499c0.333,0.333,0.499,0.739,0.499,1.22
			C7.62,26.688,7.047,27.273,5.902,27.273z M5.902,31.27c-0.506,0-0.926-0.166-1.259-0.499c-0.334-0.333-0.5-0.753-0.5-1.259
			c0-1.146,0.586-1.719,1.759-1.719c0.479,0,0.885,0.166,1.219,0.5c0.333,0.333,0.499,0.739,0.499,1.219
			C7.62,30.685,7.047,31.27,5.902,31.27z M5.902,35.267c-0.506,0-0.926-0.166-1.259-0.499c-0.334-0.333-0.5-0.753-0.5-1.26
			c0-1.145,0.586-1.719,1.759-1.719c0.479,0,0.885,0.168,1.219,0.5c0.333,0.334,0.499,0.74,0.499,1.219
			C7.62,34.682,7.047,35.267,5.902,35.267z M5.902,35.267c-0.506,0-0.926-0.166-1.259-0.499c-0.334-0.333-0.5-0.753-0.5-1.26
			c0-1.145,0.586-1.719,1.759-1.719c0.479,0,0.885,0.168,1.219,0.5c0.333,0.334,0.499,0.74,0.499,1.219
			C7.62,34.682,7.047,35.267,5.902,35.267z M5.902,39.264c-0.506,0-0.926-0.166-1.259-0.5c-0.334-0.332-0.5-0.752-0.5-1.259
			c0-1.146,0.586-1.718,1.759-1.718c0.479,0,0.885,0.166,1.219,0.499c0.333,0.333,0.499,0.739,0.499,1.219
			C7.62,38.678,7.047,39.264,5.902,39.264z M5.902,39.264c-0.506,0-0.926-0.166-1.259-0.5c-0.334-0.332-0.5-0.752-0.5-1.259
			c0-1.146,0.586-1.718,1.759-1.718c0.479,0,0.885,0.166,1.219,0.499c0.333,0.333,0.499,0.739,0.499,1.219
			C7.62,38.678,7.047,39.264,5.902,39.264z M5.902,43.26c-0.506,0-0.926-0.166-1.259-0.499c-0.334-0.333-0.5-0.753-0.5-1.259
			c0-1.146,0.586-1.719,1.759-1.719c0.479,0,0.885,0.166,1.219,0.5c0.333,0.333,0.499,0.739,0.499,1.219
			C7.62,42.675,7.047,43.26,5.902,43.26z M5.902,47.256c-0.506,0-0.926-0.166-1.259-0.498c-0.334-0.333-0.5-0.753-0.5-1.26
			c0-1.145,0.586-1.719,1.759-1.719c0.479,0,0.885,0.167,1.219,0.5c0.333,0.334,0.499,0.739,0.499,1.219
			C7.62,46.672,7.047,47.256,5.902,47.256z M5.902,51.254c-1.173,0-1.759-0.574-1.759-1.719c0-0.506,0.166-0.926,0.5-1.259
			c0.333-0.334,0.753-0.5,1.259-0.5c1.145,0,1.718,0.586,1.718,1.759c0,0.479-0.166,0.886-0.499,1.219
			C6.787,51.086,6.382,51.254,5.902,51.254z M9.898,23.277c-0.506,0-0.926-0.167-1.258-0.5c-0.334-0.332-0.5-0.752-0.5-1.259
			c0-1.146,0.586-1.719,1.758-1.719c0.48,0,0.887,0.167,1.22,0.499c0.332,0.334,0.499,0.74,0.499,1.22
			C11.617,22.691,11.044,23.277,9.898,23.277z M9.898,27.273c-0.506,0-0.926-0.166-1.258-0.5c-0.334-0.332-0.5-0.752-0.5-1.258
			c0-1.146,0.586-1.719,1.758-1.719c0.48,0,0.887,0.166,1.22,0.499c0.332,0.333,0.499,0.739,0.499,1.22
			C11.617,26.688,11.044,27.273,9.898,27.273z M9.898,35.267c-0.506,0-0.926-0.166-1.258-0.499c-0.334-0.333-0.5-0.753-0.5-1.26
			c0-1.145,0.586-1.719,1.758-1.719c0.48,0,0.887,0.168,1.22,0.5c0.332,0.334,0.499,0.74,0.499,1.219
			C11.617,34.682,11.044,35.267,9.898,35.267z M9.898,39.264c-0.506,0-0.926-0.166-1.258-0.5c-0.334-0.332-0.5-0.752-0.5-1.259
			c0-1.146,0.586-1.718,1.758-1.718c0.48,0,0.887,0.166,1.22,0.499c0.332,0.333,0.499,0.739,0.499,1.219
			C11.617,38.678,11.044,39.264,9.898,39.264z M13.896,23.277c-0.506,0-0.926-0.167-1.259-0.5c-0.334-0.332-0.5-0.752-0.5-1.259
			c0-1.146,0.586-1.719,1.759-1.719c0.479,0,0.886,0.167,1.219,0.499c0.333,0.334,0.5,0.74,0.5,1.22
			C15.614,22.691,15.041,23.277,13.896,23.277z M13.896,27.273c-0.506,0-0.926-0.166-1.259-0.5c-0.334-0.332-0.5-0.752-0.5-1.258
			c0-1.146,0.586-1.719,1.759-1.719c0.479,0,0.886,0.166,1.219,0.499s0.5,0.739,0.5,1.22C15.614,26.688,15.041,27.273,13.896,27.273
			z M13.896,35.267c-0.506,0-0.926-0.166-1.259-0.499c-0.334-0.333-0.5-0.753-0.5-1.26c0-1.145,0.586-1.719,1.759-1.719
			c0.479,0,0.886,0.168,1.219,0.5c0.333,0.334,0.5,0.74,0.5,1.219C15.614,34.682,15.041,35.267,13.896,35.267z M13.896,39.264
			c-0.506,0-0.926-0.166-1.259-0.5c-0.334-0.332-0.5-0.752-0.5-1.259c0-1.146,0.586-1.718,1.759-1.718
			c0.479,0,0.886,0.166,1.219,0.499s0.5,0.739,0.5,1.219C15.614,38.678,15.041,39.264,13.896,39.264z M17.893,23.277
			c-0.507,0-0.927-0.167-1.259-0.5c-0.334-0.332-0.5-0.752-0.5-1.259c0-1.146,0.586-1.719,1.759-1.719
			c0.479,0,0.885,0.167,1.219,0.499c0.333,0.334,0.5,0.74,0.5,1.22C19.611,22.691,19.037,23.277,17.893,23.277z M17.893,27.273
			c-0.507,0-0.927-0.166-1.259-0.5c-0.334-0.332-0.5-0.752-0.5-1.258c0-1.146,0.586-1.719,1.759-1.719
			c0.479,0,0.885,0.166,1.219,0.499c0.333,0.333,0.5,0.739,0.5,1.22C19.611,26.688,19.037,27.273,17.893,27.273z M17.893,31.27
			c-0.507,0-0.927-0.166-1.259-0.499c-0.334-0.333-0.5-0.753-0.5-1.259c0-1.146,0.586-1.719,1.759-1.719
			c0.479,0,0.885,0.166,1.219,0.5c0.333,0.333,0.5,0.739,0.5,1.219C19.611,30.685,19.037,31.27,17.893,31.27z M17.893,35.267
			c-0.507,0-0.927-0.166-1.259-0.499c-0.334-0.333-0.5-0.753-0.5-1.26c0-1.145,0.586-1.719,1.759-1.719
			c0.479,0,0.885,0.168,1.219,0.5c0.333,0.334,0.5,0.74,0.5,1.219C19.611,34.682,19.037,35.267,17.893,35.267z M17.893,39.264
			c-0.507,0-0.927-0.166-1.259-0.5c-0.334-0.332-0.5-0.752-0.5-1.259c0-1.146,0.586-1.718,1.759-1.718
			c0.479,0,0.885,0.166,1.219,0.499c0.333,0.333,0.5,0.739,0.5,1.219C19.611,38.678,19.037,39.264,17.893,39.264z M21.89,27.273
			c-0.507,0-0.927-0.166-1.26-0.5c-0.333-0.332-0.499-0.752-0.499-1.258c0-1.146,0.585-1.719,1.759-1.719
			c0.479,0,0.885,0.166,1.219,0.499c0.332,0.333,0.499,0.739,0.499,1.22C23.607,26.688,23.034,27.273,21.89,27.273z M21.89,31.27
			c-0.507,0-0.927-0.166-1.26-0.499s-0.499-0.753-0.499-1.259c0-1.146,0.585-1.719,1.759-1.719c0.479,0,0.885,0.166,1.219,0.5
			c0.332,0.333,0.499,0.739,0.499,1.219C23.607,30.685,23.034,31.27,21.89,31.27z M21.89,35.267c-0.507,0-0.927-0.166-1.26-0.499
			s-0.499-0.753-0.499-1.26c0-1.145,0.585-1.719,1.759-1.719c0.479,0,0.885,0.168,1.219,0.5c0.332,0.334,0.499,0.74,0.499,1.219
			C23.607,34.682,23.034,35.267,21.89,35.267z"/>
		<path fill="#F5F5F5" d="M31.12,23.277c-0.506,0-0.926-0.167-1.259-0.5c-0.333-0.332-0.499-0.752-0.499-1.259
			c0-1.146,0.585-1.719,1.758-1.719c0.479,0,0.886,0.167,1.22,0.499c0.333,0.334,0.499,0.74,0.499,1.22
			C32.839,22.691,32.266,23.277,31.12,23.277z M31.12,27.273c-0.506,0-0.926-0.166-1.259-0.5c-0.333-0.332-0.499-0.752-0.499-1.258
			c0-1.146,0.585-1.719,1.758-1.719c0.479,0,0.886,0.166,1.22,0.499c0.333,0.333,0.499,0.739,0.499,1.22
			C32.839,26.688,32.266,27.273,31.12,27.273z M31.12,47.256c-0.506,0-0.926-0.166-1.259-0.498c-0.333-0.333-0.499-0.753-0.499-1.26
			c0-1.145,0.585-1.719,1.758-1.719c0.479,0,0.886,0.167,1.22,0.5c0.333,0.334,0.499,0.739,0.499,1.219
			C32.839,46.672,32.266,47.256,31.12,47.256z M31.12,51.254c-1.173,0-1.758-0.574-1.758-1.719c0-0.506,0.166-0.926,0.499-1.259
			c0.333-0.334,0.753-0.5,1.259-0.5c1.146,0,1.719,0.586,1.719,1.759c0,0.479-0.166,0.886-0.499,1.219
			C32.006,51.086,31.6,51.254,31.12,51.254z M35.117,23.277c-0.507,0-0.926-0.167-1.259-0.5c-0.334-0.332-0.5-0.752-0.5-1.259
			c0-1.146,0.586-1.719,1.759-1.719c0.479,0,0.886,0.167,1.219,0.499c0.333,0.334,0.5,0.74,0.5,1.22
			C36.836,22.691,36.263,23.277,35.117,23.277z M35.117,27.273c-0.507,0-0.926-0.166-1.259-0.5c-0.334-0.332-0.5-0.752-0.5-1.258
			c0-1.146,0.586-1.719,1.759-1.719c0.479,0,0.886,0.166,1.219,0.499s0.5,0.739,0.5,1.22C36.836,26.688,36.263,27.273,35.117,27.273
			z M35.117,31.27c-0.507,0-0.926-0.166-1.259-0.499c-0.334-0.333-0.5-0.753-0.5-1.259c0-1.146,0.586-1.719,1.759-1.719
			c0.479,0,0.886,0.166,1.219,0.5c0.333,0.333,0.5,0.739,0.5,1.219C36.836,30.685,36.263,31.27,35.117,31.27z M35.117,35.267
			c-0.507,0-0.926-0.166-1.259-0.499c-0.334-0.333-0.5-0.753-0.5-1.26c0-1.145,0.586-1.719,1.759-1.719
			c0.479,0,0.886,0.168,1.219,0.5c0.333,0.334,0.5,0.74,0.5,1.219C36.836,34.682,36.263,35.267,35.117,35.267z M35.117,39.264
			c-0.507,0-0.926-0.166-1.259-0.5c-0.334-0.332-0.5-0.752-0.5-1.259c0-1.146,0.586-1.718,1.759-1.718
			c0.479,0,0.886,0.166,1.219,0.499s0.5,0.739,0.5,1.219C36.836,38.678,36.263,39.264,35.117,39.264z M35.117,43.26
			c-0.507,0-0.926-0.166-1.259-0.499c-0.334-0.333-0.5-0.753-0.5-1.259c0-1.146,0.586-1.719,1.759-1.719
			c0.479,0,0.886,0.166,1.219,0.5c0.333,0.333,0.5,0.739,0.5,1.219C36.836,42.675,36.263,43.26,35.117,43.26z M35.117,47.256
			c-0.507,0-0.926-0.166-1.259-0.498c-0.334-0.333-0.5-0.753-0.5-1.26c0-1.145,0.586-1.719,1.759-1.719
			c0.479,0,0.886,0.167,1.219,0.5c0.333,0.334,0.5,0.739,0.5,1.219C36.836,46.672,36.263,47.256,35.117,47.256z M35.117,51.254
			c-1.173,0-1.759-0.574-1.759-1.719c0-0.506,0.166-0.926,0.5-1.259c0.333-0.334,0.752-0.5,1.259-0.5
			c1.146,0,1.719,0.586,1.719,1.759c0,0.479-0.167,0.886-0.5,1.219C36.003,51.086,35.597,51.254,35.117,51.254z M39.114,23.277
			c-0.507,0-0.927-0.167-1.259-0.5c-0.334-0.332-0.5-0.752-0.5-1.259c0-1.146,0.586-1.719,1.759-1.719
			c0.479,0,0.886,0.167,1.219,0.499c0.333,0.334,0.5,0.74,0.5,1.22C40.833,22.691,40.26,23.277,39.114,23.277z M39.114,27.273
			c-0.507,0-0.927-0.166-1.259-0.5c-0.334-0.332-0.5-0.752-0.5-1.258c0-1.146,0.586-1.719,1.759-1.719
			c0.479,0,0.886,0.166,1.219,0.499s0.5,0.739,0.5,1.22C40.833,26.688,40.26,27.273,39.114,27.273z M39.114,31.27
			c-0.507,0-0.927-0.166-1.259-0.499c-0.334-0.333-0.5-0.753-0.5-1.259c0-1.146,0.586-1.719,1.759-1.719
			c0.479,0,0.886,0.166,1.219,0.5c0.333,0.333,0.5,0.739,0.5,1.219C40.833,30.685,40.26,31.27,39.114,31.27z M39.114,35.267
			c-0.507,0-0.927-0.166-1.259-0.499c-0.334-0.333-0.5-0.753-0.5-1.26c0-1.145,0.586-1.719,1.759-1.719
			c0.479,0,0.886,0.168,1.219,0.5c0.333,0.334,0.5,0.74,0.5,1.219C40.833,34.682,40.26,35.267,39.114,35.267z M39.114,39.264
			c-0.507,0-0.927-0.166-1.259-0.5c-0.334-0.332-0.5-0.752-0.5-1.259c0-1.146,0.586-1.718,1.759-1.718
			c0.479,0,0.886,0.166,1.219,0.499s0.5,0.739,0.5,1.219C40.833,38.678,40.26,39.264,39.114,39.264z M39.114,43.26
			c-0.507,0-0.927-0.166-1.259-0.499c-0.334-0.333-0.5-0.753-0.5-1.259c0-1.146,0.586-1.719,1.759-1.719
			c0.479,0,0.886,0.166,1.219,0.5c0.333,0.333,0.5,0.739,0.5,1.219C40.833,42.675,40.26,43.26,39.114,43.26z M39.114,47.256
			c-0.507,0-0.927-0.166-1.259-0.498c-0.334-0.333-0.5-0.753-0.5-1.26c0-1.145,0.586-1.719,1.759-1.719
			c0.479,0,0.886,0.167,1.219,0.5c0.333,0.334,0.5,0.739,0.5,1.219C40.833,46.672,40.26,47.256,39.114,47.256z M39.114,51.254
			c-1.173,0-1.759-0.574-1.759-1.719c0-0.506,0.166-0.926,0.5-1.259c0.332-0.334,0.752-0.5,1.259-0.5
			c1.146,0,1.719,0.586,1.719,1.759c0,0.479-0.167,0.886-0.5,1.219C40,51.086,39.594,51.254,39.114,51.254z M43.11,23.277
			c-0.506,0-0.926-0.167-1.259-0.5c-0.333-0.332-0.499-0.752-0.499-1.259c0-1.146,0.585-1.719,1.758-1.719
			c0.479,0,0.886,0.167,1.219,0.499c0.334,0.334,0.5,0.74,0.5,1.22C44.829,22.691,44.256,23.277,43.11,23.277z M43.11,27.273
			c-0.506,0-0.926-0.166-1.259-0.5c-0.333-0.332-0.499-0.752-0.499-1.258c0-1.146,0.585-1.719,1.758-1.719
			c0.479,0,0.886,0.166,1.219,0.499c0.334,0.333,0.5,0.739,0.5,1.22C44.829,26.688,44.256,27.273,43.11,27.273z M43.11,47.256
			c-0.506,0-0.926-0.166-1.259-0.498c-0.333-0.333-0.499-0.753-0.499-1.26c0-1.145,0.585-1.719,1.758-1.719
			c0.479,0,0.886,0.167,1.219,0.5c0.334,0.334,0.5,0.739,0.5,1.219C44.829,46.672,44.256,47.256,43.11,47.256z M43.11,51.254
			c-1.173,0-1.758-0.574-1.758-1.719c0-0.506,0.166-0.926,0.499-1.259c0.333-0.334,0.753-0.5,1.259-0.5
			c1.146,0,1.719,0.586,1.719,1.759c0,0.479-0.166,0.886-0.5,1.219C43.996,51.086,43.59,51.254,43.11,51.254z"/>
		<path fill="#F5F5F5" d="M53.662,23.277c-0.507,0-0.926-0.167-1.259-0.5c-0.334-0.332-0.5-0.752-0.5-1.259
			c0-1.146,0.586-1.719,1.759-1.719c0.479,0,0.886,0.167,1.219,0.499c0.333,0.334,0.5,0.74,0.5,1.22
			C55.381,22.691,54.808,23.277,53.662,23.277z M53.662,27.273c-0.507,0-0.926-0.166-1.259-0.5c-0.334-0.332-0.5-0.752-0.5-1.258
			c0-1.146,0.586-1.719,1.759-1.719c0.479,0,0.886,0.166,1.219,0.499s0.5,0.739,0.5,1.22C55.381,26.688,54.808,27.273,53.662,27.273
			z M53.662,47.256c-0.507,0-0.926-0.166-1.259-0.498c-0.334-0.333-0.5-0.753-0.5-1.26c0-1.145,0.586-1.719,1.759-1.719
			c0.479,0,0.886,0.167,1.219,0.5c0.333,0.334,0.5,0.739,0.5,1.219C55.381,46.672,54.808,47.256,53.662,47.256z M53.662,51.254
			c-1.173,0-1.759-0.574-1.759-1.719c0-0.506,0.166-0.926,0.5-1.259c0.333-0.334,0.752-0.5,1.259-0.5
			c1.146,0,1.719,0.586,1.719,1.759c0,0.479-0.167,0.886-0.5,1.219C54.548,51.086,54.142,51.254,53.662,51.254z M57.658,23.277
			c-0.506,0-0.926-0.167-1.259-0.5c-0.333-0.332-0.499-0.752-0.499-1.259c0-1.146,0.586-1.719,1.758-1.719
			c0.479,0,0.886,0.167,1.22,0.499c0.333,0.334,0.499,0.74,0.499,1.22C59.377,22.691,58.804,23.277,57.658,23.277z M57.658,27.273
			c-0.506,0-0.926-0.166-1.259-0.5c-0.333-0.332-0.499-0.752-0.499-1.258c0-1.146,0.586-1.719,1.758-1.719
			c0.479,0,0.886,0.166,1.22,0.499c0.333,0.333,0.499,0.739,0.499,1.22C59.377,26.688,58.804,27.273,57.658,27.273z M57.658,31.27
			c-0.506,0-0.926-0.166-1.259-0.499S55.9,30.018,55.9,29.512c0-1.146,0.586-1.719,1.758-1.719c0.479,0,0.886,0.166,1.22,0.5
			c0.333,0.333,0.499,0.739,0.499,1.219C59.377,30.685,58.804,31.27,57.658,31.27z M57.658,43.26c-0.506,0-0.926-0.166-1.259-0.499
			S55.9,42.008,55.9,41.502c0-1.146,0.586-1.719,1.758-1.719c0.479,0,0.886,0.166,1.22,0.5c0.333,0.333,0.499,0.739,0.499,1.219
			C59.377,42.675,58.804,43.26,57.658,43.26z M57.658,47.256c-0.506,0-0.926-0.166-1.259-0.498c-0.333-0.333-0.499-0.753-0.499-1.26
			c0-1.145,0.586-1.719,1.758-1.719c0.479,0,0.886,0.167,1.22,0.5c0.333,0.334,0.499,0.739,0.499,1.219
			C59.377,46.672,58.804,47.256,57.658,47.256z M57.658,51.254c-1.172,0-1.758-0.574-1.758-1.719c0-0.506,0.166-0.926,0.499-1.259
			c0.333-0.334,0.753-0.5,1.259-0.5c1.146,0,1.719,0.586,1.719,1.759c0,0.479-0.166,0.886-0.499,1.219
			C58.544,51.086,58.138,51.254,57.658,51.254z M61.655,31.27c-0.507,0-0.926-0.166-1.259-0.499s-0.5-0.753-0.5-1.259
			c0-1.146,0.586-1.719,1.759-1.719c0.479,0,0.886,0.166,1.22,0.5c0.332,0.333,0.499,0.739,0.499,1.219
			C63.374,30.685,62.801,31.27,61.655,31.27z M61.655,35.267c-0.507,0-0.926-0.166-1.259-0.499s-0.5-0.753-0.5-1.26
			c0-1.145,0.586-1.719,1.759-1.719c0.479,0,0.886,0.168,1.22,0.5c0.332,0.334,0.499,0.74,0.499,1.219
			C63.374,34.682,62.801,35.267,61.655,35.267z M61.655,39.264c-0.507,0-0.926-0.166-1.259-0.5c-0.333-0.332-0.5-0.752-0.5-1.259
			c0-1.146,0.586-1.718,1.759-1.718c0.479,0,0.886,0.166,1.22,0.499c0.332,0.333,0.499,0.739,0.499,1.219
			C63.374,38.678,62.801,39.264,61.655,39.264z M61.655,43.26c-0.507,0-0.926-0.166-1.259-0.499s-0.5-0.753-0.5-1.259
			c0-1.146,0.586-1.719,1.759-1.719c0.479,0,0.886,0.166,1.22,0.5c0.332,0.333,0.499,0.739,0.499,1.219
			C63.374,42.675,62.801,43.26,61.655,43.26z M65.651,35.267c-0.506,0-0.925-0.166-1.259-0.499c-0.333-0.333-0.499-0.753-0.499-1.26
			c0-1.145,0.586-1.719,1.758-1.719c0.479,0,0.886,0.168,1.22,0.5c0.333,0.334,0.499,0.74,0.499,1.219
			C67.37,34.682,66.797,35.267,65.651,35.267z M65.651,39.264c-0.506,0-0.925-0.166-1.259-0.5c-0.333-0.332-0.499-0.752-0.499-1.259
			c0-1.146,0.586-1.718,1.758-1.718c0.479,0,0.886,0.166,1.22,0.499c0.333,0.333,0.499,0.739,0.499,1.219
			C67.37,38.678,66.797,39.264,65.651,39.264z M69.648,31.27c-0.507,0-0.926-0.166-1.259-0.499c-0.334-0.333-0.5-0.753-0.5-1.259
			c0-1.146,0.587-1.719,1.759-1.719c0.48,0,0.886,0.166,1.22,0.5c0.332,0.333,0.499,0.739,0.499,1.219
			C71.367,30.685,70.794,31.27,69.648,31.27z M69.648,35.267c-0.507,0-0.926-0.166-1.259-0.499c-0.334-0.333-0.5-0.753-0.5-1.26
			c0-1.145,0.587-1.719,1.759-1.719c0.48,0,0.886,0.168,1.22,0.5c0.332,0.334,0.499,0.74,0.499,1.219
			C71.367,34.682,70.794,35.267,69.648,35.267z M69.648,39.264c-0.507,0-0.926-0.166-1.259-0.5c-0.334-0.332-0.5-0.752-0.5-1.259
			c0-1.146,0.587-1.718,1.759-1.718c0.48,0,0.886,0.166,1.22,0.499c0.332,0.333,0.499,0.739,0.499,1.219
			C71.367,38.678,70.794,39.264,69.648,39.264z M69.648,43.26c-0.507,0-0.926-0.166-1.259-0.499c-0.334-0.333-0.5-0.753-0.5-1.259
			c0-1.146,0.587-1.719,1.759-1.719c0.48,0,0.886,0.166,1.22,0.5c0.332,0.333,0.499,0.739,0.499,1.219
			C71.367,42.675,70.794,43.26,69.648,43.26z M73.646,23.277c-0.507,0-0.926-0.167-1.26-0.5c-0.333-0.332-0.499-0.752-0.499-1.259
			c0-1.146,0.586-1.719,1.759-1.719c0.479,0,0.886,0.167,1.219,0.499c0.333,0.334,0.5,0.74,0.5,1.22
			C75.364,22.691,74.791,23.277,73.646,23.277z M73.646,27.273c-0.507,0-0.926-0.166-1.26-0.5c-0.333-0.332-0.499-0.752-0.499-1.258
			c0-1.146,0.586-1.719,1.759-1.719c0.479,0,0.886,0.166,1.219,0.499s0.5,0.739,0.5,1.22C75.364,26.688,74.791,27.273,73.646,27.273
			z M73.646,31.27c-0.507,0-0.926-0.166-1.26-0.499c-0.333-0.333-0.499-0.753-0.499-1.259c0-1.146,0.586-1.719,1.759-1.719
			c0.479,0,0.886,0.166,1.219,0.5c0.333,0.333,0.5,0.739,0.5,1.219C75.364,30.685,74.791,31.27,73.646,31.27z M73.646,43.26
			c-0.507,0-0.926-0.166-1.26-0.499c-0.333-0.333-0.499-0.753-0.499-1.259c0-1.146,0.586-1.719,1.759-1.719
			c0.479,0,0.886,0.166,1.219,0.5c0.333,0.333,0.5,0.739,0.5,1.219C75.364,42.675,74.791,43.26,73.646,43.26z M73.646,47.256
			c-0.507,0-0.926-0.166-1.26-0.498c-0.333-0.333-0.499-0.753-0.499-1.26c0-1.145,0.586-1.719,1.759-1.719
			c0.479,0,0.886,0.167,1.219,0.5c0.333,0.334,0.5,0.739,0.5,1.219C75.364,46.672,74.791,47.256,73.646,47.256z M73.646,51.254
			c-1.173,0-1.759-0.574-1.759-1.719c0-0.506,0.166-0.926,0.499-1.259c0.334-0.334,0.753-0.5,1.26-0.5
			c1.146,0,1.719,0.586,1.719,1.759c0,0.479-0.167,0.886-0.5,1.219C74.531,51.086,74.125,51.254,73.646,51.254z M77.642,23.277
			c-0.506,0-0.926-0.167-1.259-0.5c-0.333-0.332-0.499-0.752-0.499-1.259c0-1.146,0.586-1.719,1.758-1.719
			c0.48,0,0.886,0.167,1.22,0.499c0.333,0.334,0.499,0.74,0.499,1.22C79.36,22.691,78.787,23.277,77.642,23.277z M77.642,27.273
			c-0.506,0-0.926-0.166-1.259-0.5c-0.333-0.332-0.499-0.752-0.499-1.258c0-1.146,0.586-1.719,1.758-1.719
			c0.48,0,0.886,0.166,1.22,0.499c0.333,0.333,0.499,0.739,0.499,1.22C79.36,26.688,78.787,27.273,77.642,27.273z M77.642,47.256
			c-0.506,0-0.926-0.166-1.259-0.498c-0.333-0.333-0.499-0.753-0.499-1.26c0-1.145,0.586-1.719,1.758-1.719
			c0.48,0,0.886,0.167,1.22,0.5c0.333,0.334,0.499,0.739,0.499,1.219C79.36,46.672,78.787,47.256,77.642,47.256z M77.642,51.254
			c-1.172,0-1.758-0.574-1.758-1.719c0-0.506,0.166-0.926,0.499-1.259c0.333-0.334,0.753-0.5,1.259-0.5
			c1.146,0,1.719,0.586,1.719,1.759c0,0.479-0.166,0.886-0.499,1.219C78.527,51.086,78.122,51.254,77.642,51.254z"/>
		<path fill="#F5F5F5" d="M87.674,23.277c-0.507,0-0.927-0.167-1.259-0.5c-0.334-0.332-0.5-0.752-0.5-1.259
			c0-1.146,0.586-1.719,1.759-1.719c0.479,0,0.886,0.167,1.219,0.499c0.333,0.334,0.5,0.74,0.5,1.22
			C89.393,22.691,88.819,23.277,87.674,23.277z M87.674,27.273c-0.507,0-0.927-0.166-1.259-0.5c-0.334-0.332-0.5-0.752-0.5-1.258
			c0-1.146,0.586-1.719,1.759-1.719c0.479,0,0.886,0.166,1.219,0.499s0.5,0.739,0.5,1.22C89.393,26.688,88.819,27.273,87.674,27.273
			z M87.674,31.27c-0.507,0-0.927-0.166-1.259-0.499c-0.334-0.333-0.5-0.753-0.5-1.259c0-1.146,0.586-1.719,1.759-1.719
			c0.479,0,0.886,0.166,1.219,0.5c0.333,0.333,0.5,0.739,0.5,1.219C89.393,30.685,88.819,31.27,87.674,31.27z M87.674,35.267
			c-0.507,0-0.927-0.166-1.259-0.499c-0.334-0.333-0.5-0.753-0.5-1.26c0-1.145,0.586-1.719,1.759-1.719
			c0.479,0,0.886,0.168,1.219,0.5c0.333,0.334,0.5,0.74,0.5,1.219C89.393,34.682,88.819,35.267,87.674,35.267z M87.674,39.264
			c-0.507,0-0.927-0.166-1.259-0.5c-0.334-0.332-0.5-0.752-0.5-1.259c0-1.146,0.586-1.718,1.759-1.718
			c0.479,0,0.886,0.166,1.219,0.499s0.5,0.739,0.5,1.219C89.393,38.678,88.819,39.264,87.674,39.264z M87.674,43.26
			c-0.507,0-0.927-0.166-1.259-0.499c-0.334-0.333-0.5-0.753-0.5-1.259c0-1.146,0.586-1.719,1.759-1.719
			c0.479,0,0.886,0.166,1.219,0.5c0.333,0.333,0.5,0.739,0.5,1.219C89.393,42.675,88.819,43.26,87.674,43.26z M87.674,47.256
			c-0.507,0-0.927-0.166-1.259-0.498c-0.334-0.333-0.5-0.753-0.5-1.26c0-1.145,0.586-1.719,1.759-1.719
			c0.479,0,0.886,0.167,1.219,0.5c0.333,0.334,0.5,0.739,0.5,1.219C89.393,46.672,88.819,47.256,87.674,47.256z M87.674,51.254
			c-1.173,0-1.759-0.574-1.759-1.719c0-0.506,0.166-0.926,0.5-1.259c0.332-0.334,0.752-0.5,1.259-0.5
			c1.146,0,1.719,0.586,1.719,1.759c0,0.479-0.167,0.886-0.5,1.219C88.56,51.086,88.153,51.254,87.674,51.254z M91.67,23.277
			c-0.506,0-0.926-0.167-1.259-0.5c-0.334-0.332-0.5-0.752-0.5-1.259c0-1.146,0.586-1.719,1.759-1.719
			c0.479,0,0.886,0.167,1.219,0.499c0.333,0.334,0.5,0.74,0.5,1.22C93.389,22.691,92.815,23.277,91.67,23.277z M91.67,27.273
			c-0.506,0-0.926-0.166-1.259-0.5c-0.334-0.332-0.5-0.752-0.5-1.258c0-1.146,0.586-1.719,1.759-1.719
			c0.479,0,0.886,0.166,1.219,0.499s0.5,0.739,0.5,1.22C93.389,26.688,92.815,27.273,91.67,27.273z M91.67,27.273
			c-0.506,0-0.926-0.166-1.259-0.5c-0.334-0.332-0.5-0.752-0.5-1.258c0-1.146,0.586-1.719,1.759-1.719
			c0.479,0,0.886,0.166,1.219,0.499s0.5,0.739,0.5,1.22C93.389,26.688,92.815,27.273,91.67,27.273z M91.67,31.27
			c-0.506,0-0.926-0.166-1.259-0.499c-0.334-0.333-0.5-0.753-0.5-1.259c0-1.146,0.586-1.719,1.759-1.719
			c0.479,0,0.886,0.166,1.219,0.5c0.333,0.333,0.5,0.739,0.5,1.219C93.389,30.685,92.815,31.27,91.67,31.27z M91.67,35.267
			c-0.506,0-0.926-0.166-1.259-0.499c-0.334-0.333-0.5-0.753-0.5-1.26c0-1.145,0.586-1.719,1.759-1.719
			c0.479,0,0.886,0.168,1.219,0.5c0.333,0.334,0.5,0.74,0.5,1.219C93.389,34.682,92.815,35.267,91.67,35.267z M91.67,35.267
			c-0.506,0-0.926-0.166-1.259-0.499c-0.334-0.333-0.5-0.753-0.5-1.26c0-1.145,0.586-1.719,1.759-1.719
			c0.479,0,0.886,0.168,1.219,0.5c0.333,0.334,0.5,0.74,0.5,1.219C93.389,34.682,92.815,35.267,91.67,35.267z M91.67,39.264
			c-0.506,0-0.926-0.166-1.259-0.5c-0.334-0.332-0.5-0.752-0.5-1.259c0-1.146,0.586-1.718,1.759-1.718
			c0.479,0,0.886,0.166,1.219,0.499s0.5,0.739,0.5,1.219C93.389,38.678,92.815,39.264,91.67,39.264z M91.67,39.264
			c-0.506,0-0.926-0.166-1.259-0.5c-0.334-0.332-0.5-0.752-0.5-1.259c0-1.146,0.586-1.718,1.759-1.718
			c0.479,0,0.886,0.166,1.219,0.499s0.5,0.739,0.5,1.219C93.389,38.678,92.815,39.264,91.67,39.264z M91.67,43.26
			c-0.506,0-0.926-0.166-1.259-0.499c-0.334-0.333-0.5-0.753-0.5-1.259c0-1.146,0.586-1.719,1.759-1.719
			c0.479,0,0.886,0.166,1.219,0.5c0.333,0.333,0.5,0.739,0.5,1.219C93.389,42.675,92.815,43.26,91.67,43.26z M91.67,47.256
			c-0.506,0-0.926-0.166-1.259-0.498c-0.334-0.333-0.5-0.753-0.5-1.26c0-1.145,0.586-1.719,1.759-1.719
			c0.479,0,0.886,0.167,1.219,0.5c0.333,0.334,0.5,0.739,0.5,1.219C93.389,46.672,92.815,47.256,91.67,47.256z M91.67,47.256
			c-0.506,0-0.926-0.166-1.259-0.498c-0.334-0.333-0.5-0.753-0.5-1.26c0-1.145,0.586-1.719,1.759-1.719
			c0.479,0,0.886,0.167,1.219,0.5c0.333,0.334,0.5,0.739,0.5,1.219C93.389,46.672,92.815,47.256,91.67,47.256z M91.67,51.254
			c-1.173,0-1.759-0.574-1.759-1.719c0-0.506,0.166-0.926,0.5-1.259c0.333-0.334,0.753-0.5,1.259-0.5
			c1.146,0,1.719,0.586,1.719,1.759c0,0.479-0.167,0.886-0.5,1.219C92.556,51.086,92.149,51.254,91.67,51.254z M95.667,23.277
			c-0.507,0-0.927-0.167-1.259-0.5c-0.334-0.332-0.5-0.752-0.5-1.259c0-1.146,0.586-1.719,1.759-1.719
			c0.479,0,0.886,0.167,1.219,0.499c0.333,0.334,0.5,0.74,0.5,1.22C97.386,22.691,96.812,23.277,95.667,23.277z M95.667,27.273
			c-0.507,0-0.927-0.166-1.259-0.5c-0.334-0.332-0.5-0.752-0.5-1.258c0-1.146,0.586-1.719,1.759-1.719
			c0.479,0,0.886,0.166,1.219,0.499s0.5,0.739,0.5,1.22C97.386,26.688,96.812,27.273,95.667,27.273z M95.667,35.267
			c-0.507,0-0.927-0.166-1.259-0.499c-0.334-0.333-0.5-0.753-0.5-1.26c0-1.145,0.586-1.719,1.759-1.719
			c0.479,0,0.886,0.168,1.219,0.5c0.333,0.334,0.5,0.74,0.5,1.219C97.386,34.682,96.812,35.267,95.667,35.267z M95.667,39.264
			c-0.507,0-0.927-0.166-1.259-0.5c-0.334-0.332-0.5-0.752-0.5-1.259c0-1.146,0.586-1.718,1.759-1.718
			c0.479,0,0.886,0.166,1.219,0.499s0.5,0.739,0.5,1.219C97.386,38.678,96.812,39.264,95.667,39.264z M95.667,47.256
			c-0.507,0-0.927-0.166-1.259-0.498c-0.334-0.333-0.5-0.753-0.5-1.26c0-1.145,0.586-1.719,1.759-1.719
			c0.479,0,0.886,0.167,1.219,0.5c0.333,0.334,0.5,0.739,0.5,1.219C97.386,46.672,96.812,47.256,95.667,47.256z M95.667,51.254
			c-1.173,0-1.759-0.574-1.759-1.719c0-0.506,0.166-0.926,0.5-1.259c0.332-0.334,0.752-0.5,1.259-0.5
			c1.146,0,1.719,0.586,1.719,1.759c0,0.479-0.167,0.886-0.5,1.219C96.553,51.086,96.146,51.254,95.667,51.254z M99.663,23.277
			c-0.506,0-0.926-0.167-1.259-0.5c-0.334-0.332-0.5-0.752-0.5-1.259c0-1.146,0.586-1.719,1.759-1.719
			c0.479,0,0.886,0.167,1.219,0.499c0.333,0.334,0.5,0.74,0.5,1.22C101.382,22.691,100.809,23.277,99.663,23.277z M99.663,27.273
			c-0.506,0-0.926-0.166-1.259-0.5c-0.334-0.332-0.5-0.752-0.5-1.258c0-1.146,0.586-1.719,1.759-1.719
			c0.479,0,0.886,0.166,1.219,0.499s0.5,0.739,0.5,1.22C101.382,26.688,100.809,27.273,99.663,27.273z M99.663,35.267
			c-0.506,0-0.926-0.166-1.259-0.499c-0.334-0.333-0.5-0.753-0.5-1.26c0-1.145,0.586-1.719,1.759-1.719
			c0.479,0,0.886,0.168,1.219,0.5c0.333,0.334,0.5,0.74,0.5,1.219C101.382,34.682,100.809,35.267,99.663,35.267z M99.663,39.264
			c-0.506,0-0.926-0.166-1.259-0.5c-0.334-0.332-0.5-0.752-0.5-1.259c0-1.146,0.586-1.718,1.759-1.718
			c0.479,0,0.886,0.166,1.219,0.499s0.5,0.739,0.5,1.219C101.382,38.678,100.809,39.264,99.663,39.264z M99.663,47.256
			c-0.506,0-0.926-0.166-1.259-0.498c-0.334-0.333-0.5-0.753-0.5-1.26c0-1.145,0.586-1.719,1.759-1.719
			c0.479,0,0.886,0.167,1.219,0.5c0.333,0.334,0.5,0.739,0.5,1.219C101.382,46.672,100.809,47.256,99.663,47.256z M99.663,51.254
			c-1.173,0-1.759-0.574-1.759-1.719c0-0.506,0.166-0.926,0.5-1.259c0.333-0.334,0.753-0.5,1.259-0.5
			c1.146,0,1.719,0.586,1.719,1.759c0,0.479-0.167,0.886-0.5,1.219C100.549,51.086,100.143,51.254,99.663,51.254z M103.66,23.277
			c-0.507,0-0.926-0.167-1.259-0.5c-0.334-0.332-0.5-0.752-0.5-1.259c0-1.146,0.586-1.719,1.759-1.719
			c0.479,0,0.886,0.167,1.219,0.499c0.333,0.334,0.5,0.74,0.5,1.22C105.379,22.691,104.806,23.277,103.66,23.277z M103.66,27.273
			c-0.507,0-0.926-0.166-1.259-0.5c-0.334-0.332-0.5-0.752-0.5-1.258c0-1.146,0.586-1.719,1.759-1.719
			c0.479,0,0.886,0.166,1.219,0.499s0.5,0.739,0.5,1.22C105.379,26.688,104.806,27.273,103.66,27.273z M103.66,35.267
			c-0.507,0-0.926-0.166-1.259-0.499c-0.334-0.333-0.5-0.753-0.5-1.26c0-1.145,0.586-1.719,1.759-1.719
			c0.479,0,0.886,0.168,1.219,0.5c0.333,0.334,0.5,0.74,0.5,1.219C105.379,34.682,104.806,35.267,103.66,35.267z M103.66,39.264
			c-0.507,0-0.926-0.166-1.259-0.5c-0.334-0.332-0.5-0.752-0.5-1.259c0-1.146,0.586-1.718,1.759-1.718
			c0.479,0,0.886,0.166,1.219,0.499s0.5,0.739,0.5,1.219C105.379,38.678,104.806,39.264,103.66,39.264z M103.66,47.256
			c-0.507,0-0.926-0.166-1.259-0.498c-0.334-0.333-0.5-0.753-0.5-1.26c0-1.145,0.586-1.719,1.759-1.719
			c0.479,0,0.886,0.167,1.219,0.5c0.333,0.334,0.5,0.739,0.5,1.219C105.379,46.672,104.806,47.256,103.66,47.256z M103.66,51.254
			c-1.173,0-1.759-0.574-1.759-1.719c0-0.506,0.166-0.926,0.5-1.259c0.333-0.334,0.752-0.5,1.259-0.5
			c1.146,0,1.719,0.586,1.719,1.759c0,0.479-0.167,0.886-0.5,1.219C104.546,51.086,104.14,51.254,103.66,51.254z M107.657,23.277
			c-0.507,0-0.927-0.167-1.26-0.5c-0.333-0.332-0.499-0.752-0.499-1.259c0-1.146,0.586-1.719,1.759-1.719
			c0.479,0,0.885,0.167,1.219,0.499c0.332,0.334,0.5,0.74,0.5,1.22C109.376,22.691,108.803,23.277,107.657,23.277z M107.657,27.273
			c-0.507,0-0.927-0.166-1.26-0.5c-0.333-0.332-0.499-0.752-0.499-1.258c0-1.146,0.586-1.719,1.759-1.719
			c0.479,0,0.885,0.166,1.219,0.499c0.332,0.333,0.5,0.739,0.5,1.22C109.376,26.688,108.803,27.273,107.657,27.273z M107.657,47.256
			c-0.507,0-0.927-0.166-1.26-0.498c-0.333-0.333-0.499-0.753-0.499-1.26c0-1.145,0.586-1.719,1.759-1.719
			c0.479,0,0.885,0.167,1.219,0.5c0.332,0.334,0.5,0.739,0.5,1.219C109.376,46.672,108.803,47.256,107.657,47.256z M107.657,51.254
			c-1.173,0-1.759-0.574-1.759-1.719c0-0.506,0.166-0.926,0.499-1.259c0.333-0.334,0.753-0.5,1.26-0.5
			c1.146,0,1.719,0.586,1.719,1.759c0,0.479-0.168,0.886-0.5,1.219C108.542,51.086,108.137,51.254,107.657,51.254z"/>
		<path fill="#F5F5F5" d="M117.328,23.277c-0.507,0-0.927-0.167-1.259-0.5c-0.333-0.332-0.5-0.752-0.5-1.259
			c0-1.146,0.586-1.719,1.759-1.719c0.479,0,0.886,0.167,1.22,0.499c0.332,0.334,0.499,0.74,0.499,1.22
			C119.047,22.691,118.474,23.277,117.328,23.277z M117.328,27.273c-0.507,0-0.927-0.166-1.259-0.5
			c-0.333-0.332-0.5-0.752-0.5-1.258c0-1.146,0.586-1.719,1.759-1.719c0.479,0,0.886,0.166,1.22,0.499
			c0.332,0.333,0.499,0.739,0.499,1.22C119.047,26.688,118.474,27.273,117.328,27.273z M117.328,31.27
			c-0.507,0-0.927-0.166-1.259-0.499c-0.333-0.333-0.5-0.753-0.5-1.259c0-1.146,0.586-1.719,1.759-1.719
			c0.479,0,0.886,0.166,1.22,0.5c0.332,0.333,0.499,0.739,0.499,1.219C119.047,30.685,118.474,31.27,117.328,31.27z M117.328,35.267
			c-0.507,0-0.927-0.166-1.259-0.499c-0.333-0.333-0.5-0.753-0.5-1.26c0-1.145,0.586-1.719,1.759-1.719
			c0.479,0,0.886,0.168,1.22,0.5c0.332,0.334,0.499,0.74,0.499,1.219C119.047,34.682,118.474,35.267,117.328,35.267z
			 M117.328,39.264c-0.507,0-0.927-0.166-1.259-0.5c-0.333-0.332-0.5-0.752-0.5-1.259c0-1.146,0.586-1.718,1.759-1.718
			c0.479,0,0.886,0.166,1.22,0.499c0.332,0.333,0.499,0.739,0.499,1.219C119.047,38.678,118.474,39.264,117.328,39.264z
			 M117.328,43.26c-0.507,0-0.927-0.166-1.259-0.499c-0.333-0.333-0.5-0.753-0.5-1.259c0-1.146,0.586-1.719,1.759-1.719
			c0.479,0,0.886,0.166,1.22,0.5c0.332,0.333,0.499,0.739,0.499,1.219C119.047,42.675,118.474,43.26,117.328,43.26z M117.328,47.256
			c-0.507,0-0.927-0.166-1.259-0.498c-0.333-0.333-0.5-0.753-0.5-1.26c0-1.145,0.586-1.719,1.759-1.719
			c0.479,0,0.886,0.167,1.22,0.5c0.332,0.334,0.499,0.739,0.499,1.219C119.047,46.672,118.474,47.256,117.328,47.256z
			 M117.328,51.254c-1.173,0-1.759-0.574-1.759-1.719c0-0.506,0.167-0.926,0.5-1.259c0.332-0.334,0.752-0.5,1.259-0.5
			c1.146,0,1.719,0.586,1.719,1.759c0,0.479-0.167,0.886-0.499,1.219C118.214,51.086,117.808,51.254,117.328,51.254z
			 M121.325,23.277c-0.507,0-0.926-0.167-1.26-0.5c-0.333-0.332-0.499-0.752-0.499-1.259c0-1.146,0.586-1.719,1.759-1.719
			c0.479,0,0.885,0.167,1.218,0.499c0.334,0.334,0.5,0.74,0.5,1.22C123.043,22.691,122.47,23.277,121.325,23.277z M121.325,27.273
			c-0.507,0-0.926-0.166-1.26-0.5c-0.333-0.332-0.499-0.752-0.499-1.258c0-1.146,0.586-1.719,1.759-1.719
			c0.479,0,0.885,0.166,1.218,0.499c0.334,0.333,0.5,0.739,0.5,1.22C123.043,26.688,122.47,27.273,121.325,27.273z M121.325,31.27
			c-0.507,0-0.926-0.166-1.26-0.499c-0.333-0.333-0.499-0.753-0.499-1.259c0-1.146,0.586-1.719,1.759-1.719
			c0.479,0,0.885,0.166,1.218,0.5c0.334,0.333,0.5,0.739,0.5,1.219C123.043,30.685,122.47,31.27,121.325,31.27z M121.325,35.267
			c-0.507,0-0.926-0.166-1.26-0.499c-0.333-0.333-0.499-0.753-0.499-1.26c0-1.145,0.586-1.719,1.759-1.719
			c0.479,0,0.885,0.168,1.218,0.5c0.334,0.334,0.5,0.74,0.5,1.219C123.043,34.682,122.47,35.267,121.325,35.267z M121.325,39.264
			c-0.507,0-0.926-0.166-1.26-0.5c-0.333-0.332-0.499-0.752-0.499-1.259c0-1.146,0.586-1.718,1.759-1.718
			c0.479,0,0.885,0.166,1.218,0.499c0.334,0.333,0.5,0.739,0.5,1.219C123.043,38.678,122.47,39.264,121.325,39.264z M121.325,43.26
			c-0.507,0-0.926-0.166-1.26-0.499c-0.333-0.333-0.499-0.753-0.499-1.259c0-1.146,0.586-1.719,1.759-1.719
			c0.479,0,0.885,0.166,1.218,0.5c0.334,0.333,0.5,0.739,0.5,1.219C123.043,42.675,122.47,43.26,121.325,43.26z M121.325,47.256
			c-0.507,0-0.926-0.166-1.26-0.498c-0.333-0.333-0.499-0.753-0.499-1.26c0-1.145,0.586-1.719,1.759-1.719
			c0.479,0,0.885,0.167,1.218,0.5c0.334,0.334,0.5,0.739,0.5,1.219C123.043,46.672,122.47,47.256,121.325,47.256z M121.325,51.254
			c-1.173,0-1.759-0.574-1.759-1.719c0-0.506,0.166-0.926,0.499-1.259c0.334-0.334,0.753-0.5,1.26-0.5
			c1.145,0,1.718,0.586,1.718,1.759c0,0.479-0.166,0.886-0.5,1.219C122.21,51.086,121.804,51.254,121.325,51.254z M125.321,47.256
			c-0.506,0-0.926-0.166-1.259-0.498c-0.333-0.333-0.499-0.753-0.499-1.26c0-1.145,0.585-1.719,1.758-1.719
			c0.479,0,0.886,0.167,1.219,0.5c0.333,0.334,0.5,0.739,0.5,1.219C127.04,46.672,126.467,47.256,125.321,47.256z M125.321,51.254
			c-1.173,0-1.758-0.574-1.758-1.719c0-0.506,0.166-0.926,0.499-1.259c0.333-0.334,0.753-0.5,1.259-0.5
			c1.146,0,1.719,0.586,1.719,1.759c0,0.479-0.167,0.886-0.5,1.219C126.207,51.086,125.801,51.254,125.321,51.254z M129.318,47.256
			c-0.507,0-0.927-0.166-1.259-0.498c-0.334-0.333-0.5-0.753-0.5-1.26c0-1.145,0.586-1.719,1.759-1.719
			c0.479,0,0.885,0.167,1.219,0.5c0.333,0.334,0.5,0.739,0.5,1.219C131.037,46.672,130.464,47.256,129.318,47.256z M129.318,51.254
			c-1.173,0-1.759-0.574-1.759-1.719c0-0.506,0.166-0.926,0.5-1.259c0.332-0.334,0.752-0.5,1.259-0.5
			c1.146,0,1.719,0.586,1.719,1.759c0,0.479-0.167,0.886-0.5,1.219C130.203,51.086,129.798,51.254,129.318,51.254z M133.314,47.256
			c-0.506,0-0.926-0.166-1.259-0.498c-0.333-0.333-0.499-0.753-0.499-1.26c0-1.145,0.585-1.719,1.758-1.719
			c0.479,0,0.886,0.167,1.22,0.5c0.333,0.334,0.499,0.739,0.499,1.219C135.033,46.672,134.46,47.256,133.314,47.256z
			 M133.314,51.254c-1.173,0-1.758-0.574-1.758-1.719c0-0.506,0.166-0.926,0.499-1.259c0.333-0.334,0.753-0.5,1.259-0.5
			c1.146,0,1.719,0.586,1.719,1.759c0,0.479-0.166,0.886-0.499,1.219C134.2,51.086,133.794,51.254,133.314,51.254z"/>
	</g>
</g>
<path fill="#F5F5F5" d="M2.041,14.76h4.917c0.294,0,0.533,0.078,0.719,0.233c0.186,0.156,0.278,0.398,0.278,0.726
	c0,0.329-0.093,0.571-0.278,0.727c-0.186,0.156-0.425,0.234-0.719,0.234H1.09c-0.387,0-0.665-0.109-0.835-0.328
	C0.085,16.134,0,15.868,0,15.556V1.125c0-0.312,0.085-0.577,0.255-0.797C0.425,0.109,0.703,0,1.09,0h5.868
	c0.294,0,0.533,0.079,0.719,0.234c0.186,0.156,0.278,0.398,0.278,0.727s-0.093,0.57-0.278,0.727S7.252,1.922,6.958,1.922H2.041V7.38
	h4.477c0.293,0,0.533,0.078,0.719,0.234S7.515,8.012,7.515,8.34S7.422,8.91,7.236,9.066S6.811,9.301,6.518,9.301H2.041V14.76z"/>
<path fill="#F5F5F5" d="M15.969,0.152c0.487,0.103,0.92,0.238,1.299,0.41s0.685,0.379,0.916,0.621
	c0.232,0.242,0.349,0.496,0.349,0.762c0,0.249-0.082,0.465-0.244,0.645s-0.375,0.27-0.637,0.27c-0.233,0-0.434-0.056-0.604-0.164
	c-0.171-0.109-0.368-0.234-0.592-0.375c-0.225-0.141-0.495-0.266-0.812-0.375c-0.317-0.109-0.731-0.164-1.241-0.164
	c-0.758,0-1.385,0.215-1.879,0.644c-0.495,0.43-0.742,0.989-0.742,1.679c0,0.598,0.193,1.068,0.58,1.414
	c0.386,0.345,0.869,0.64,1.449,0.885c0.58,0.246,1.21,0.476,1.891,0.69c0.681,0.214,1.311,0.494,1.891,0.839
	s1.062,0.797,1.449,1.355c0.387,0.561,0.58,1.301,0.58,2.22c0,0.675-0.124,1.326-0.371,1.954c-0.247,0.629-0.607,1.181-1.078,1.656
	c-0.473,0.475-1.056,0.854-1.752,1.137c-0.695,0.284-1.492,0.426-2.389,0.426c-0.541,0-1.087-0.05-1.636-0.152
	c-0.549-0.102-1.043-0.242-1.483-0.422c-0.441-0.179-0.798-0.389-1.067-0.631c-0.271-0.243-0.406-0.512-0.406-0.809
	c0-0.282,0.069-0.527,0.209-0.738c0.139-0.211,0.355-0.316,0.649-0.316c0.17,0,0.362,0.066,0.58,0.199
	c0.216,0.133,0.476,0.281,0.776,0.445c0.302,0.164,0.646,0.312,1.032,0.445s0.843,0.198,1.369,0.198
	c0.525,0,0.997-0.087,1.415-0.265c0.417-0.176,0.772-0.417,1.066-0.724s0.519-0.659,0.672-1.058
	c0.155-0.398,0.232-0.828,0.232-1.288c0-0.644-0.192-1.149-0.579-1.517c-0.388-0.368-0.87-0.676-1.45-0.92
	c-0.58-0.246-1.21-0.476-1.89-0.689c-0.682-0.215-1.312-0.487-1.891-0.816c-0.58-0.33-1.063-0.76-1.45-1.287
	c-0.387-0.529-0.58-1.238-0.58-2.127c0-0.477,0.112-0.963,0.337-1.461c0.224-0.498,0.545-0.949,0.963-1.355
	c0.417-0.406,0.928-0.74,1.53-1.001C13.035,0.131,13.715,0,14.473,0C14.983,0,15.481,0.052,15.969,0.152z"/>
<path fill="#F5F5F5" d="M24.238,1.922h-3.086c-0.294,0-0.533-0.078-0.719-0.234s-0.278-0.398-0.278-0.727s0.093-0.57,0.278-0.727
	C20.619,0.079,20.858,0,21.152,0h8.211c0.294,0,0.534,0.079,0.72,0.234c0.186,0.156,0.278,0.398,0.278,0.727
	s-0.093,0.57-0.278,0.727s-0.426,0.234-0.72,0.234h-3.084V15.59c0,0.34-0.094,0.607-0.278,0.801
	c-0.186,0.193-0.434,0.289-0.742,0.289c-0.31,0-0.558-0.096-0.743-0.289s-0.277-0.461-0.277-0.801V1.922z"/>
<path fill="#F5F5F5" d="M31.752,1.084c0-0.339,0.093-0.604,0.278-0.795C32.216,0.097,32.464,0,32.773,0
	c0.309,0,0.556,0.096,0.742,0.288c0.186,0.191,0.277,0.456,0.277,0.792v9.727c0,1.288,0.402,2.292,1.206,3.012
	c0.805,0.721,1.856,1.081,3.154,1.081c1.3,0,2.352-0.36,3.155-1.081c0.804-0.72,1.206-1.724,1.206-3.012V1.08
	c0-0.336,0.093-0.601,0.278-0.792C42.979,0.096,43.226,0,43.535,0s0.557,0.097,0.742,0.289c0.186,0.191,0.278,0.456,0.278,0.795
	v8.961c0,1.383-0.201,2.504-0.603,3.363c-0.402,0.861-0.917,1.533-1.543,2.016c-0.626,0.484-1.314,0.814-2.064,0.991
	s-1.48,0.265-2.192,0.265c-0.711,0-1.441-0.088-2.191-0.265s-1.438-0.507-2.063-0.991c-0.627-0.482-1.141-1.154-1.543-2.016
	c-0.402-0.859-0.604-1.98-0.604-3.363V1.084z"/>
<path fill="#F5F5F5" d="M47.362,1.125c0-0.312,0.085-0.577,0.256-0.797C47.788,0.109,48.065,0,48.453,0h4.013
	c1.236,0,2.311,0.223,3.224,0.668c0.912,0.445,1.674,1.047,2.284,1.805c0.611,0.758,1.067,1.632,1.369,2.623
	c0.301,0.992,0.452,2.042,0.452,3.15c0,1.25-0.159,2.39-0.476,3.421c-0.317,1.03-0.776,1.917-1.38,2.659s-1.342,1.319-2.216,1.732
	c-0.873,0.415-1.867,0.621-2.98,0.621h-4.29c-0.388,0-0.665-0.109-0.835-0.328c-0.171-0.218-0.256-0.483-0.256-0.796V1.125z
	 M49.403,14.899h2.923c0.959,0,1.774-0.187,2.447-0.562s1.218-0.871,1.635-1.488s0.723-1.327,0.917-2.132
	c0.193-0.804,0.289-1.628,0.289-2.472c0-0.857-0.101-1.678-0.302-2.459c-0.2-0.781-0.518-1.469-0.95-2.062
	c-0.434-0.594-0.994-1.065-1.683-1.418c-0.688-0.351-1.519-0.526-2.493-0.526h-2.783V14.899z"/>
<path fill="#F5F5F5" d="M63.9,15.598c0,0.338-0.093,0.604-0.279,0.795c-0.186,0.191-0.433,0.287-0.741,0.287
	c-0.31,0-0.558-0.096-0.742-0.287c-0.186-0.191-0.279-0.457-0.279-0.795V1.084c0-0.339,0.094-0.604,0.279-0.795
	C62.322,0.097,62.57,0,62.88,0c0.309,0,0.556,0.097,0.741,0.289C63.808,0.48,63.9,0.745,63.9,1.084V15.598z"/>
<path fill="#F5F5F5" d="M66.428,5.242c0.31-1.006,0.77-1.897,1.381-2.674c0.61-0.774,1.368-1.396,2.273-1.865
	C70.986,0.234,72.025,0,73.201,0c1.175,0,2.215,0.234,3.119,0.703s1.662,1.091,2.273,1.865c0.61,0.776,1.07,1.668,1.38,2.674
	s0.464,2.039,0.464,3.098c0,1.061-0.154,2.094-0.464,3.1s-0.77,1.896-1.38,2.672c-0.611,0.776-1.369,1.398-2.273,1.866
	c-0.904,0.469-1.944,0.702-3.119,0.702c-1.176,0-2.215-0.233-3.119-0.702c-0.905-0.468-1.663-1.09-2.273-1.866
	c-0.611-0.775-1.071-1.666-1.381-2.672s-0.464-2.039-0.464-3.1C65.964,7.281,66.118,6.248,66.428,5.242z M68.411,10.68
	c0.178,0.78,0.468,1.484,0.87,2.11s0.924,1.136,1.565,1.524c0.642,0.391,1.427,0.585,2.354,0.585c0.927,0,1.712-0.194,2.354-0.585
	c0.641-0.389,1.163-0.898,1.565-1.524c0.401-0.626,0.691-1.33,0.87-2.11c0.177-0.779,0.266-1.559,0.266-2.34
	c0-0.779-0.089-1.559-0.266-2.339c-0.179-0.779-0.469-1.483-0.87-2.11c-0.402-0.627-0.925-1.135-1.565-1.524
	c-0.643-0.39-1.428-0.585-2.354-0.585c-0.928,0-1.713,0.195-2.354,0.585s-1.163,0.897-1.565,1.524s-0.692,1.331-0.87,2.11
	c-0.178,0.78-0.267,1.56-0.267,2.339C68.145,9.121,68.233,9.9,68.411,10.68z"/>
</svg>
